<svg width="526" height="491" viewBox="0 0 526 491" fill="none" xmlns="http://www.w3.org/2000/svg">
<g clip-path="url(#clip0_206_190)">
<path d="M247.982 4.09631L231.886 12.8769L33.5858 121.056L17.4903 129.837C9.68024 134.109 3.88396 141.304 1.3731 149.843C-1.13775 158.383 -0.158143 167.57 4.09703 175.388L151.767 445.988C156.039 453.796 163.236 459.592 171.777 462.102C180.318 464.613 189.506 463.633 197.325 459.379L197.367 459.356L427.775 333.661L427.817 333.639C435.627 329.367 441.423 322.171 443.934 313.632C446.445 305.092 445.465 295.906 441.21 288.087L293.54 17.4875C289.268 9.6787 282.071 3.88336 273.53 1.3729C264.989 -1.13756 255.801 -0.158134 247.982 4.09631Z" fill="#F2F2F2"/>
<path d="M252.612 12.5803L233.548 22.9803L41.1839 127.921L22.1201 138.321C16.5584 141.363 12.4307 146.487 10.6426 152.568C8.85458 158.649 9.55219 165.191 12.5824 170.759L160.252 441.359C163.295 446.919 168.419 451.046 174.501 452.834C180.584 454.622 187.127 453.924 192.695 450.895L192.737 450.872L423.145 325.177L423.187 325.154C428.749 322.112 432.876 316.988 434.664 310.907C436.452 304.826 435.755 298.284 432.724 292.716L285.055 22.1165C282.012 16.5558 276.888 12.4288 270.805 10.641C264.723 8.8532 258.18 9.55064 252.612 12.5803Z" fill="white"/>
<path d="M255.79 96.5744L169.857 143.454C168.555 144.164 167.024 144.328 165.601 143.91C164.179 143.492 162.98 142.525 162.27 141.224C161.56 139.922 161.396 138.392 161.814 136.969C162.232 135.547 163.198 134.348 164.5 133.638L250.434 86.7589C251.735 86.0488 253.266 85.8847 254.689 86.3029C256.112 86.7211 257.31 87.6873 258.02 88.9889C258.731 90.2905 258.895 91.821 258.477 93.2435C258.058 94.6661 257.092 95.8643 255.79 96.5744H255.79Z" fill="#F2F2F2"/>
<path d="M285.077 102.093L178.896 160.018C177.594 160.728 176.063 160.892 174.64 160.474C173.218 160.056 172.019 159.089 171.309 157.788C170.599 156.486 170.434 154.956 170.853 153.533C171.271 152.111 172.237 150.912 173.539 150.202L279.72 92.277C280.365 91.9254 281.073 91.7041 281.803 91.6258C282.533 91.5476 283.271 91.6139 283.976 91.821C284.68 92.028 285.337 92.3718 285.909 92.8327C286.48 93.2935 286.955 93.8625 287.307 94.507C287.659 95.1515 287.88 95.8589 287.958 96.5889C288.037 97.3189 287.97 98.0572 287.763 98.7616C287.556 99.466 287.212 100.123 286.751 100.694C286.29 101.266 285.721 101.741 285.077 102.093H285.077Z" fill="#F2F2F2"/>
<path d="M134.529 123.94L55.3032 167.16C54.6795 167.5 54.2166 168.074 54.0163 168.756C53.8159 169.438 53.8944 170.171 54.2346 170.794L87.9708 232.615C88.3113 233.239 88.8855 233.702 89.5672 233.902C90.2488 234.102 90.9822 234.024 91.606 233.684L170.832 190.464C171.455 190.123 171.918 189.549 172.119 188.868C172.319 188.186 172.24 187.453 171.9 186.829L138.164 125.008C137.824 124.385 137.249 123.922 136.568 123.722C135.886 123.521 135.153 123.6 134.529 123.94Z" fill="#F2F2F2"/>
<path d="M298.428 175.015L181.87 238.601C181.226 238.953 180.518 239.174 179.788 239.252C179.058 239.33 178.319 239.264 177.615 239.057C176.91 238.85 176.254 238.506 175.682 238.045C175.11 237.584 174.635 237.015 174.283 236.371C173.932 235.726 173.71 235.019 173.632 234.289C173.554 233.559 173.62 232.821 173.827 232.116C174.034 231.412 174.378 230.755 174.839 230.184C175.3 229.612 175.869 229.137 176.514 228.785L293.072 165.199C294.373 164.489 295.904 164.325 297.327 164.743C298.75 165.162 299.948 166.128 300.658 167.429C301.369 168.731 301.533 170.261 301.114 171.684C300.696 173.107 299.73 174.305 298.428 175.015H298.428Z" fill="#F2F2F2"/>
<path d="M327.715 180.533L190.909 255.165C189.607 255.875 188.077 256.039 186.654 255.621C185.231 255.203 184.033 254.236 183.322 252.935C182.612 251.633 182.448 250.103 182.866 248.68C183.285 247.258 184.251 246.059 185.553 245.349L322.358 170.717C323.66 170.007 325.191 169.843 326.614 170.261C328.037 170.68 329.235 171.646 329.945 172.947C330.656 174.249 330.82 175.779 330.401 177.202C329.983 178.625 329.017 179.823 327.715 180.533H327.715Z" fill="#F2F2F2"/>
<path d="M137.479 290.676C150.581 290.676 161.202 280.056 161.202 266.957C161.202 253.857 150.581 243.238 137.479 243.238C124.378 243.238 113.757 253.857 113.757 266.957C113.757 280.056 124.378 290.676 137.479 290.676Z" fill="#F2F2F2"/>
<path d="M492.422 115.596H229.854C220.951 115.606 212.416 119.147 206.121 125.441C199.826 131.734 196.286 140.268 196.276 149.169V457.427C196.286 466.328 199.826 474.862 206.121 481.156C212.416 487.45 220.951 490.99 229.854 491H492.422C501.324 490.99 509.859 487.45 516.154 481.156C522.449 474.862 525.99 466.328 526 457.427V149.169C525.99 140.268 522.449 131.734 516.154 125.441C509.859 119.147 501.324 115.606 492.422 115.596Z" fill="#E6E6E6"/>
<path d="M492.422 125.261H229.854C223.514 125.268 217.436 127.789 212.953 132.271C208.471 136.753 205.949 142.83 205.942 149.169V457.427C205.949 463.766 208.471 469.843 212.953 474.325C217.436 478.807 223.514 481.328 229.854 481.335H492.422C498.762 481.328 504.84 478.807 509.322 474.325C513.805 469.843 516.327 463.766 516.334 457.427V149.169C516.327 142.83 513.805 136.753 509.322 132.271C504.84 127.789 498.762 125.268 492.422 125.261Z" fill="white"/>
<path d="M454.975 200.516H357.083C355.6 200.516 354.178 199.927 353.129 198.879C352.08 197.83 351.491 196.408 351.491 194.925C351.491 193.443 352.08 192.021 353.129 190.972C354.178 189.924 355.6 189.335 357.083 189.335H454.975C455.71 189.334 456.438 189.478 457.117 189.758C457.796 190.039 458.413 190.451 458.933 190.97C459.453 191.489 459.866 192.106 460.147 192.785C460.428 193.463 460.573 194.191 460.573 194.925C460.573 195.66 460.428 196.388 460.147 197.066C459.866 197.745 459.453 198.362 458.933 198.881C458.413 199.4 457.796 199.812 457.117 200.092C456.438 200.373 455.71 200.517 454.975 200.516Z" fill="#8C30F5"/>
<path d="M478.041 219.385H357.083C355.6 219.385 354.178 218.796 353.129 217.747C352.08 216.699 351.491 215.277 351.491 213.794C351.491 212.311 352.08 210.889 353.129 209.841C354.178 208.792 355.6 208.203 357.083 208.203H478.041C479.524 208.203 480.946 208.792 481.995 209.841C483.043 210.889 483.633 212.311 483.633 213.794C483.633 215.277 483.043 216.699 481.995 217.747C480.946 218.796 479.524 219.385 478.041 219.385Z" fill="#8C30F5"/>
<path d="M335.419 166.468H245.168C244.457 166.468 243.776 166.75 243.273 167.253C242.771 167.755 242.489 168.436 242.489 169.147V239.571C242.489 240.281 242.771 240.963 243.273 241.465C243.776 241.967 244.457 242.25 245.168 242.25H335.419C336.13 242.25 336.811 241.967 337.313 241.465C337.816 240.963 338.098 240.281 338.098 239.571V169.147C338.098 168.436 337.816 167.755 337.313 167.253C336.811 166.75 336.13 166.468 335.419 166.468Z" fill="#E6E6E6"/>
<path d="M269.924 209.713C269.961 215.658 267.77 221.402 263.781 225.811C259.835 230.142 253.96 233.013 248.031 231.825C242.572 230.731 238.136 225.96 238.69 220.189C238.781 218.939 239.145 217.724 239.754 216.629C240.364 215.534 241.205 214.585 242.219 213.848C243.233 213.111 244.396 212.604 245.626 212.362C246.856 212.121 248.124 212.15 249.342 212.449C254.528 213.795 256.594 221.268 252.272 224.775C251.236 225.617 249.746 224.145 250.792 223.295C253.649 220.977 252.767 215.904 249.318 214.632C245.304 213.151 241.051 216.336 240.762 220.44C240.42 225.305 244.147 228.969 248.719 229.832C253.664 230.765 258.568 228.234 261.919 224.741C265.759 220.685 267.878 215.299 267.831 209.713C267.84 209.442 267.955 209.185 268.15 208.996C268.345 208.808 268.606 208.702 268.878 208.702C269.149 208.702 269.41 208.808 269.605 208.996C269.801 209.185 269.915 209.442 269.924 209.713Z" fill="#2F2E41"/>
<path d="M290.363 223.018C310.987 223.018 327.705 206.302 327.705 185.682C327.705 165.062 310.987 148.346 290.363 148.346C269.74 148.346 253.022 165.062 253.022 185.682C253.022 206.302 269.74 223.018 290.363 223.018Z" fill="#8C30F5"/>
<path d="M288.453 201.613L288.414 200.217C291.01 200.145 293.299 199.982 295.019 198.726C295.506 198.35 295.907 197.873 296.194 197.328C296.481 196.783 296.646 196.182 296.68 195.567C296.711 195.191 296.654 194.814 296.514 194.463C296.375 194.113 296.156 193.8 295.876 193.548C294.734 192.584 292.897 192.896 291.558 193.51L290.404 194.039L292.618 177.861L294 178.05L292.117 191.812C293.936 191.277 295.622 191.507 296.777 192.482C297.22 192.869 297.568 193.354 297.793 193.897C298.018 194.441 298.115 195.029 298.075 195.616C298.034 196.442 297.813 197.25 297.427 197.982C297.042 198.714 296.5 199.352 295.842 199.853C293.632 201.468 290.761 201.548 288.453 201.613Z" fill="#2F2E41"/>
<path d="M308.353 179.237H300.838V180.632H308.353V179.237Z" fill="#2F2E41"/>
<path d="M284.631 179.237H277.115V180.632H284.631V179.237Z" fill="#2F2E41"/>
<path d="M269.679 242.25C272.478 240.474 275.503 239.082 278.673 238.113C278.37 237.038 278.375 235.899 278.686 234.827C279.107 233.472 279.955 232.29 281.103 231.456C282.251 230.623 283.638 230.183 285.057 230.202H294.155C295.576 230.184 296.965 230.625 298.116 231.459C299.266 232.294 300.116 233.477 300.54 234.834C300.851 235.904 300.856 237.04 300.553 238.113C303.722 239.084 306.747 240.475 309.547 242.25H269.679Z" fill="#2F2E41"/>
<path d="M333.137 171.826C332.457 171.002 331.62 170.321 330.675 169.823C329.845 169.39 328.924 169.163 327.988 169.161C326.703 169.176 325.456 169.596 324.423 170.361C321.583 172.37 319.615 176.702 319.615 181.718C319.615 188.01 322.713 193.228 326.739 194.135C327.149 194.227 327.568 194.274 327.988 194.275C332.6 194.275 336.361 188.645 336.361 181.718C336.361 177.699 335.098 174.121 333.137 171.826Z" fill="#3F3D56"/>
<path d="M256.443 170.061H256.436C255.503 169.481 254.429 169.17 253.331 169.161C252.396 169.163 251.474 169.39 250.645 169.823C249.7 170.321 248.862 171.002 248.182 171.826L248.175 171.832C246.221 174.128 244.958 177.706 244.958 181.718C244.958 187.131 247.247 191.749 250.457 193.514C251.335 194.007 252.324 194.268 253.331 194.275C253.555 194.275 253.779 194.261 254.001 194.233H254.008C258.306 193.717 261.704 188.303 261.704 181.718C261.704 176.444 259.52 171.916 256.443 170.061Z" fill="#3F3D56"/>
<path d="M250.98 192.314C251.146 192.314 251.31 192.274 251.457 192.198C251.605 192.122 251.733 192.012 251.83 191.877C251.927 191.742 251.99 191.586 252.015 191.422C252.039 191.258 252.025 191.09 251.972 190.933C249.971 184.985 249.37 178.657 250.213 172.439C251.057 166.222 253.323 160.282 256.836 155.083C260.348 149.883 265.013 145.564 270.467 142.459C275.92 139.355 282.017 137.55 288.282 137.185C294.547 136.819 300.811 137.903 306.589 140.352C312.367 142.801 317.502 146.549 321.596 151.305C325.69 156.061 328.631 161.696 330.192 167.774C331.753 173.851 331.892 180.206 330.597 186.346C330.539 186.618 330.592 186.901 330.744 187.133C330.896 187.366 331.133 187.529 331.405 187.586C331.676 187.643 331.96 187.59 332.192 187.439C332.425 187.287 332.588 187.049 332.645 186.778C334.007 180.323 333.862 173.641 332.222 167.251C330.581 160.861 327.489 154.935 323.185 149.935C318.881 144.934 313.482 140.993 307.407 138.419C301.332 135.844 294.745 134.704 288.158 135.089C281.571 135.473 275.162 137.371 269.428 140.635C263.694 143.899 258.79 148.441 255.097 153.908C251.404 159.376 249.022 165.621 248.136 172.158C247.25 178.695 247.884 185.349 249.988 191.602C250.058 191.809 250.192 191.989 250.369 192.117C250.547 192.245 250.761 192.314 250.98 192.314Z" fill="#3F3D56"/>
<path d="M309.122 161.492C310.601 163.51 309.872 166.229 308.314 167.969C306.287 170.233 303.054 170.376 300.247 169.956C297.097 169.484 293.756 168.009 290.567 169.003C287.849 169.851 285.911 172.316 283.087 172.935C280.583 173.484 277.588 172.757 276.71 170.088C276.289 168.806 278.309 168.256 278.729 169.532C279.297 171.258 281.749 171.224 283.153 170.746C285.405 169.979 287.14 168.115 289.353 167.225C291.962 166.175 294.793 166.649 297.449 167.247C299.953 167.81 302.834 168.646 305.328 167.593C307.174 166.814 308.642 164.36 307.315 162.548C306.518 161.46 308.333 160.415 309.122 161.492Z" fill="#2F2E41"/>
<path d="M454.828 289.793H322.049C321.315 289.793 320.588 289.648 319.909 289.367C319.231 289.086 318.614 288.674 318.095 288.155C317.576 287.636 317.164 287.02 316.883 286.341C316.602 285.663 316.457 284.936 316.457 284.202C316.457 283.468 316.602 282.741 316.883 282.062C317.164 281.384 317.576 280.768 318.095 280.249C318.614 279.729 319.231 279.318 319.909 279.037C320.588 278.756 321.315 278.611 322.049 278.611H454.828C456.31 278.613 457.73 279.202 458.778 280.251C459.825 281.299 460.413 282.72 460.413 284.202C460.413 285.684 459.825 287.105 458.778 288.153C457.73 289.201 456.31 289.791 454.828 289.793Z" fill="#E6E6E6"/>
<path d="M477.894 308.661H322.049C321.314 308.662 320.586 308.518 319.907 308.238C319.228 307.957 318.611 307.545 318.091 307.026C317.571 306.507 317.159 305.89 316.877 305.212C316.596 304.533 316.451 303.805 316.451 303.071C316.451 302.336 316.596 301.609 316.877 300.93C317.159 300.251 317.571 299.635 318.091 299.115C318.611 298.596 319.228 298.184 319.907 297.904C320.586 297.623 321.314 297.479 322.049 297.48H477.894C478.628 297.479 479.356 297.623 480.035 297.904C480.715 298.184 481.332 298.596 481.852 299.115C482.371 299.635 482.784 300.251 483.065 300.93C483.347 301.609 483.492 302.336 483.492 303.071C483.492 303.805 483.347 304.533 483.065 305.212C482.784 305.89 482.371 306.507 481.852 307.026C481.332 307.545 480.715 307.957 480.035 308.238C479.356 308.518 478.628 308.662 477.894 308.661Z" fill="#E6E6E6"/>
<path d="M454.828 357.61H322.049C320.566 357.61 319.144 357.021 318.095 355.972C317.046 354.924 316.457 353.502 316.457 352.019C316.457 350.536 317.046 349.114 318.095 348.066C319.144 347.017 320.566 346.428 322.049 346.428H454.828C456.311 346.428 457.733 347.017 458.782 348.066C459.83 349.114 460.42 350.536 460.42 352.019C460.42 353.502 459.83 354.924 458.782 355.972C457.733 357.021 456.311 357.61 454.828 357.61Z" fill="#E6E6E6"/>
<path d="M477.894 376.479H322.049C320.566 376.479 319.144 375.89 318.095 374.841C317.046 373.793 316.457 372.371 316.457 370.888C316.457 369.405 317.046 367.983 318.095 366.935C319.144 365.886 320.566 365.297 322.049 365.297H477.894C479.377 365.297 480.799 365.886 481.847 366.935C482.896 367.983 483.485 369.405 483.485 370.888C483.485 372.371 482.896 373.793 481.847 374.841C480.799 375.89 479.377 376.479 477.894 376.479Z" fill="#E6E6E6"/>
<path d="M269.497 317.145C282.599 317.145 293.22 306.526 293.22 293.426C293.22 280.327 282.599 269.708 269.497 269.708C256.396 269.708 245.775 280.327 245.775 293.426C245.775 306.526 256.396 317.145 269.497 317.145Z" fill="#E6E6E6"/>
<path d="M269.497 385.511C282.599 385.511 293.22 374.892 293.22 361.792C293.22 348.693 282.599 338.073 269.497 338.073C256.396 338.073 245.775 348.693 245.775 361.792C245.775 374.892 256.396 385.511 269.497 385.511Z" fill="#E6E6E6"/>
<path d="M454.828 425.976H322.049C320.566 425.976 319.144 425.387 318.095 424.339C317.046 423.29 316.457 421.868 316.457 420.385C316.457 418.903 317.046 417.481 318.095 416.432C319.144 415.384 320.566 414.795 322.049 414.795H454.828C456.311 414.795 457.733 415.384 458.782 416.432C459.83 417.481 460.42 418.903 460.42 420.385C460.42 421.868 459.83 423.29 458.782 424.339C457.733 425.387 456.311 425.976 454.828 425.976Z" fill="#E6E6E6"/>
<path d="M477.894 444.845H322.049C320.566 444.845 319.144 444.256 318.095 443.207C317.046 442.159 316.457 440.737 316.457 439.254C316.457 437.771 317.046 436.349 318.095 435.301C319.144 434.252 320.566 433.663 322.049 433.663H477.894C479.377 433.663 480.799 434.252 481.847 435.301C482.896 436.349 483.485 437.771 483.485 439.254C483.485 440.737 482.896 442.159 481.847 443.207C480.799 444.256 479.377 444.845 477.894 444.845Z" fill="#E6E6E6"/>
<path d="M269.497 453.877C282.599 453.877 293.22 443.258 293.22 430.159C293.22 417.059 282.599 406.44 269.497 406.44C256.396 406.44 245.775 417.059 245.775 430.159C245.775 443.258 256.396 453.877 269.497 453.877Z" fill="#E6E6E6"/>
</g>
<defs>
<clipPath id="clip0_206_190">
<rect width="526" height="491" fill="white"/>
</clipPath>
</defs>
</svg>
